<svg xmlns="http://www.w3.org/2000/svg" xmlns:xlink="http://www.w3.org/1999/xlink" width="500" zoomAndPan="magnify" viewBox="0 0 375 374.999991" height="500" preserveAspectRatio="xMidYMid meet" version="1.0"><defs><clipPath id="dc74dce5ba"><path d="M 204 272 L 300 272 L 300 355.6875 L 204 355.6875 Z M 204 272 " clip-rule="nonzero"/></clipPath><clipPath id="b0dc05f893"><path d="M 75 271 L 176 271 L 176 355.6875 L 75 355.6875 Z M 75 271 " clip-rule="nonzero"/></clipPath></defs><path fill="#41e0d5" d="M 187.511719 249.761719 C 184.976562 249.761719 182.933594 247.71875 182.933594 245.179688 L 182.933594 118.863281 C 182.933594 116.324219 184.976562 114.28125 187.511719 114.28125 C 190.046875 114.28125 192.089844 116.324219 192.089844 118.863281 L 192.089844 245.179688 C 192.089844 247.71875 190.046875 249.761719 187.511719 249.761719 Z M 187.511719 249.761719 " fill-opacity="1" fill-rule="nonzero"/><path fill="#41e0d5" d="M 256.761719 138.425781 C 256.128906 138.425781 255.496094 138.28125 254.882812 138.023438 C 252.582031 136.964844 251.574219 134.261719 252.605469 131.957031 C 254.460938 127.84375 255.425781 123.449219 255.425781 118.863281 C 255.425781 101.398438 241.21875 87.171875 223.769531 87.171875 C 206.320312 87.171875 192.113281 101.398438 192.113281 118.863281 C 192.113281 121.402344 190.070312 123.449219 187.535156 123.449219 C 185 123.449219 182.957031 121.402344 182.957031 118.863281 C 182.957031 96.320312 201.273438 78.003906 223.769531 78.003906 C 246.265625 78.003906 264.582031 96.34375 264.582031 118.863281 C 264.582031 124.742188 263.363281 130.429688 260.941406 135.742188 C 260.167969 137.4375 258.5 138.425781 256.761719 138.425781 Z M 256.761719 138.425781 " fill-opacity="1" fill-rule="nonzero"/><path fill="#41e0d5" d="M 242.835938 228.207031 C 240.605469 228.207031 238.65625 226.582031 238.328125 224.328125 C 237.953125 221.835938 239.667969 219.484375 242.15625 219.109375 C 269.328125 214.921875 288.066406 189.390625 283.886719 162.191406 C 282.6875 154.339844 279.753906 147.097656 275.148438 140.703125 C 270.78125 134.59375 264.957031 129.46875 258.335938 125.871094 C 256.105469 124.671875 255.285156 121.875 256.503906 119.664062 C 257.703125 117.429688 260.496094 116.605469 262.703125 117.828125 C 270.546875 122.085938 277.429688 128.148438 282.59375 135.390625 C 288.019531 142.984375 291.519531 151.542969 292.925781 160.828125 C 295.320312 176.4375 291.496094 192.023438 282.171875 204.765625 C 272.847656 217.484375 259.113281 225.832031 243.542969 228.207031 C 243.308594 228.183594 243.074219 228.207031 242.835938 228.207031 Z M 242.835938 228.207031 " fill-opacity="1" fill-rule="nonzero"/><path fill="#41e0d5" d="M 228.347656 284.792969 C 225.953125 284.792969 223.957031 282.933594 223.792969 280.539062 C 223.628906 278.023438 225.53125 275.8125 228.042969 275.648438 C 235.417969 275.128906 242.601562 272.730469 248.871094 268.734375 C 257.773438 263.023438 264.371094 254.300781 267.425781 244.167969 C 270.453125 234.152344 269.867188 223.363281 265.78125 213.816406 C 264.792969 211.492188 265.851562 208.785156 268.175781 207.800781 C 270.5 206.8125 273.199219 207.871094 274.1875 210.199219 C 279.117188 221.742188 279.824219 234.742188 276.183594 246.824219 C 272.496094 259.050781 264.535156 269.558594 253.804688 276.445312 C 246.265625 281.289062 237.578125 284.179688 228.675781 284.792969 C 228.558594 284.792969 228.464844 284.792969 228.347656 284.792969 Z M 228.347656 284.792969 " fill-opacity="1" fill-rule="nonzero"/><path fill="#41e0d5" d="M 216.820312 300.542969 C 198.125 300.542969 182.933594 285.332031 182.933594 266.621094 L 182.933594 205.964844 C 182.933594 203.425781 184.976562 201.382812 187.511719 201.382812 C 190.046875 201.382812 192.089844 203.425781 192.089844 205.964844 L 192.089844 266.621094 C 192.089844 273.203125 194.675781 279.410156 199.371094 284.109375 C 204.066406 288.8125 210.265625 291.398438 216.84375 291.398438 C 226.304688 291.398438 235.066406 285.851562 239.175781 277.246094 C 240.253906 274.964844 243.003906 274 245.28125 275.082031 C 247.558594 276.164062 248.519531 278.914062 247.441406 281.195312 C 244.714844 286.882812 240.464844 291.726562 235.160156 295.160156 C 229.664062 298.6875 223.324219 300.542969 216.820312 300.542969 Z M 216.820312 300.542969 " fill-opacity="1" fill-rule="nonzero"/><path fill="#41e0d5" d="M 231.402344 125.46875 C 229.78125 125.46875 228.464844 124.152344 228.464844 122.53125 C 228.464844 116.371094 223.464844 111.386719 217.335938 111.386719 C 215.714844 111.386719 214.398438 110.070312 214.398438 108.449219 C 214.398438 106.828125 215.714844 105.511719 217.335938 105.511719 C 226.703125 105.511719 234.335938 113.152344 234.335938 122.53125 C 234.335938 124.152344 233.023438 125.46875 231.402344 125.46875 Z M 231.402344 125.46875 " fill-opacity="1" fill-rule="nonzero"/><path fill="#41e0d5" d="M 209.5625 186.359375 C 207.988281 186.359375 206.675781 185.113281 206.625 183.515625 C 206.460938 178.132812 207.988281 172.957031 211.066406 168.5625 C 214.046875 164.308594 218.367188 161.039062 223.230469 159.371094 C 224.753906 158.828125 226.421875 159.652344 226.964844 161.179688 C 227.503906 162.707031 226.679688 164.378906 225.15625 164.917969 C 217.3125 167.621094 212.238281 175.027344 212.496094 183.328125 C 212.542969 184.949219 211.277344 186.3125 209.65625 186.359375 C 209.609375 186.359375 209.585938 186.359375 209.5625 186.359375 Z M 209.5625 186.359375 " fill-opacity="1" fill-rule="nonzero"/><path fill="#41e0d5" d="M 248.941406 196.820312 C 247.910156 196.820312 246.898438 196.257812 246.359375 195.292969 C 245.585938 193.859375 246.101562 192.070312 247.535156 191.296875 C 257.5625 185.820312 261.273438 173.171875 255.800781 163.109375 C 255.023438 161.675781 255.542969 159.886719 256.972656 159.113281 C 258.40625 158.335938 260.191406 158.851562 260.964844 160.289062 C 268.011719 173.171875 263.246094 189.390625 250.375 196.445312 C 249.882812 196.703125 249.414062 196.820312 248.941406 196.820312 Z M 248.941406 196.820312 " fill-opacity="1" fill-rule="nonzero"/><path fill="#41e0d5" d="M 187.511719 249.761719 C 184.976562 249.761719 182.933594 247.71875 182.933594 245.179688 L 182.933594 118.863281 C 182.933594 116.324219 184.976562 114.28125 187.511719 114.28125 C 190.046875 114.28125 192.089844 116.324219 192.089844 118.863281 L 192.089844 245.179688 C 192.089844 247.71875 190.046875 249.761719 187.511719 249.761719 Z M 187.511719 249.761719 " fill-opacity="1" fill-rule="nonzero"/><path fill="#41e0d5" d="M 118.261719 138.425781 C 116.523438 138.425781 114.855469 137.414062 114.082031 135.742188 C 111.660156 130.429688 110.441406 124.742188 110.441406 118.863281 C 110.441406 96.320312 128.757812 78.003906 151.253906 78.003906 C 173.75 78.003906 192.066406 96.34375 192.066406 118.863281 C 192.066406 121.402344 190.023438 123.449219 187.488281 123.449219 C 184.953125 123.449219 182.910156 121.402344 182.910156 118.863281 C 182.910156 101.398438 168.703125 87.171875 151.253906 87.171875 C 133.804688 87.171875 119.597656 101.398438 119.597656 118.863281 C 119.597656 123.425781 120.539062 127.820312 122.417969 131.957031 C 123.472656 134.261719 122.441406 136.988281 120.140625 138.023438 C 119.527344 138.304688 118.894531 138.425781 118.261719 138.425781 Z M 118.261719 138.425781 " fill-opacity="1" fill-rule="nonzero"/><path fill="#41e0d5" d="M 132.1875 228.207031 C 131.949219 228.207031 131.714844 228.183594 131.480469 228.160156 C 115.886719 225.761719 102.175781 217.4375 92.851562 204.71875 C 83.527344 192 79.703125 176.390625 82.097656 160.78125 C 83.527344 151.496094 87.003906 142.9375 92.429688 135.34375 C 97.617188 128.101562 104.5 122.039062 112.320312 117.78125 C 114.550781 116.582031 117.320312 117.40625 118.519531 119.617188 C 119.714844 121.851562 118.894531 124.625 116.6875 125.824219 C 110.066406 129.417969 104.242188 134.542969 99.875 140.65625 C 95.292969 147.074219 92.359375 154.292969 91.136719 162.144531 C 86.957031 189.34375 105.671875 214.898438 132.867188 219.0625 C 135.355469 219.4375 137.070312 221.789062 136.695312 224.28125 C 136.34375 226.582031 134.394531 228.207031 132.1875 228.207031 Z M 132.1875 228.207031 " fill-opacity="1" fill-rule="nonzero"/><path fill="#41e0d5" d="M 146.675781 284.792969 C 146.558594 284.792969 146.464844 284.792969 146.347656 284.792969 C 137.445312 284.179688 128.757812 281.289062 121.21875 276.445312 C 110.464844 269.558594 102.527344 259.027344 98.839844 246.824219 C 95.199219 234.742188 95.90625 221.742188 100.835938 210.199219 C 101.824219 207.871094 104.523438 206.789062 106.847656 207.800781 C 109.171875 208.785156 110.253906 211.492188 109.242188 213.816406 C 105.15625 223.386719 104.570312 234.152344 107.597656 244.167969 C 110.652344 254.300781 117.25 263.023438 126.152344 268.734375 C 132.421875 272.753906 139.605469 275.152344 146.980469 275.648438 C 149.492188 275.8125 151.394531 278.023438 151.230469 280.539062 C 151.066406 282.933594 149.046875 284.792969 146.675781 284.792969 Z M 146.675781 284.792969 " fill-opacity="1" fill-rule="nonzero"/><path fill="#41e0d5" d="M 158.203125 300.542969 C 151.699219 300.542969 145.359375 298.664062 139.886719 295.136719 C 134.582031 291.703125 130.332031 286.859375 127.605469 281.171875 C 126.527344 278.890625 127.488281 276.140625 129.765625 275.058594 C 132.042969 273.976562 134.792969 274.941406 135.871094 277.222656 C 139.980469 285.828125 148.742188 291.375 158.203125 291.375 C 164.78125 291.375 170.980469 288.789062 175.675781 284.085938 C 180.371094 279.386719 182.957031 273.179688 182.957031 266.597656 L 182.957031 205.941406 C 182.957031 203.402344 185 201.359375 187.535156 201.359375 C 190.070312 201.359375 192.113281 203.402344 192.113281 205.941406 L 192.113281 266.597656 C 192.089844 285.332031 176.898438 300.542969 158.203125 300.542969 Z M 158.203125 300.542969 " fill-opacity="1" fill-rule="nonzero"/><path fill="#41e0d5" d="M 154.308594 253.761719 C 153.507812 253.761719 152.710938 253.429688 152.121094 252.773438 C 151.042969 251.574219 151.136719 249.714844 152.359375 248.613281 C 160.152344 241.605469 162.148438 230.273438 157.21875 221.035156 C 156.445312 219.601562 156.984375 217.816406 158.417969 217.0625 C 159.847656 216.285156 161.632812 216.828125 162.386719 218.261719 C 168.585938 229.898438 166.070312 244.167969 156.257812 252.984375 C 155.691406 253.5 154.988281 253.761719 154.308594 253.761719 Z M 154.308594 253.761719 " fill-opacity="1" fill-rule="nonzero"/><path fill="#41e0d5" d="M 153.765625 157.867188 C 153.179688 157.867188 152.59375 157.703125 152.074219 157.324219 C 150.738281 156.386719 150.433594 154.550781 151.347656 153.234375 C 154.210938 149.121094 155.246094 141.292969 153.953125 133.25 C 152.851562 126.316406 150.171875 120.0625 146.792969 116.488281 C 145.6875 115.3125 145.734375 113.457031 146.910156 112.328125 C 148.082031 111.222656 149.9375 111.269531 151.066406 112.445312 C 155.292969 116.914062 158.464844 124.152344 159.777344 132.335938 C 161.304688 141.949219 159.941406 151.238281 156.183594 156.621094 C 155.597656 157.417969 154.683594 157.867188 153.765625 157.867188 Z M 153.765625 157.867188 " fill-opacity="1" fill-rule="nonzero"/><path fill="#41e0d5" d="M 133.617188 196.914062 C 133.101562 196.914062 132.5625 196.773438 132.09375 196.492188 C 125.5625 192.496094 120.984375 186.195312 119.199219 178.765625 C 117.414062 171.335938 118.613281 163.625 122.605469 157.089844 C 123.449219 155.703125 125.257812 155.28125 126.644531 156.125 C 128.03125 156.972656 128.453125 158.78125 127.605469 160.167969 C 124.4375 165.367188 123.472656 171.476562 124.90625 177.402344 C 126.339844 183.328125 129.976562 188.308594 135.167969 191.484375 C 136.554688 192.332031 136.976562 194.140625 136.132812 195.527344 C 135.566406 196.421875 134.605469 196.914062 133.617188 196.914062 Z M 133.617188 196.914062 " fill-opacity="1" fill-rule="nonzero"/><path fill="#41e0d5" d="M 223.019531 257.097656 C 221.492188 257.097656 220.199219 255.921875 220.082031 254.371094 C 219.964844 252.75 221.1875 251.339844 222.808594 251.246094 C 263.902344 248.375 301.355469 240.429688 328.222656 228.863281 C 354.59375 217.53125 369.105469 203.472656 369.105469 189.273438 C 369.105469 171.855469 347.40625 154.902344 309.578125 142.773438 C 308.027344 142.28125 307.179688 140.632812 307.675781 139.082031 C 308.167969 137.53125 309.8125 136.683594 311.359375 137.179688 C 330.875 143.429688 346.304688 150.929688 357.246094 159.511719 C 369.011719 168.726562 375 178.742188 375 189.273438 C 375 197.972656 370.890625 206.367188 362.765625 214.265625 C 355.226562 221.574219 344.402344 228.300781 330.546875 234.269531 C 303.09375 246.074219 264.957031 254.207031 223.230469 257.121094 C 223.160156 257.097656 223.089844 257.097656 223.019531 257.097656 Z M 223.019531 257.097656 " fill-opacity="1" fill-rule="nonzero"/><path fill="#41e0d5" d="M 103.558594 251.105469 C 103.394531 251.105469 103.207031 251.082031 103.019531 251.054688 C 72.890625 245.53125 47.4375 237.140625 29.378906 226.796875 C 10.144531 215.769531 0 202.792969 0 189.273438 C 0 182.457031 2.558594 175.757812 7.632812 169.363281 C 12.351562 163.390625 19.257812 157.726562 28.132812 152.484375 C 45.394531 142.304688 69.839844 133.933594 98.863281 128.292969 C 100.460938 127.984375 101.988281 129.019531 102.316406 130.617188 C 102.621094 132.21875 101.585938 133.746094 99.992188 134.074219 C 71.625 139.597656 47.8125 147.734375 31.113281 157.558594 C 14.605469 167.292969 5.871094 178.273438 5.871094 189.296875 C 5.871094 200.582031 15.003906 211.796875 32.3125 221.71875 C 49.785156 231.730469 74.605469 239.890625 104.078125 245.296875 C 105.671875 245.578125 106.730469 247.128906 106.425781 248.707031 C 106.191406 250.117188 104.945312 251.105469 103.558594 251.105469 Z M 103.558594 251.105469 " fill-opacity="1" fill-rule="nonzero"/><g clip-path="url(#dc74dce5ba)"><path fill="#41e0d5" d="M 266.273438 355.648438 C 260.449219 355.648438 253.992188 354.261719 246.96875 351.464844 C 234.242188 346.386719 220.152344 336.960938 205.148438 323.394531 C 203.949219 322.3125 203.855469 320.457031 204.9375 319.234375 C 206.015625 318.035156 207.871094 317.941406 209.09375 319.023438 C 231.355469 339.121094 251.386719 349.75 266.25 349.75 C 270.804688 349.75 274.84375 348.761719 278.34375 346.738281 C 285.507812 342.601562 290.132812 334.375 292.105469 322.265625 C 294.101562 310.042969 293.300781 294.621094 289.734375 276.421875 C 289.429688 274.824219 290.460938 273.296875 292.058594 272.96875 C 293.65625 272.660156 295.179688 273.695312 295.511719 275.292969 C 303.28125 314.859375 298.234375 342.039062 281.28125 351.839844 C 276.839844 354.378906 271.839844 355.648438 266.273438 355.648438 Z M 266.273438 355.648438 " fill-opacity="1" fill-rule="nonzero"/></g><path fill="#41e0d5" d="M 82.121094 104.054688 C 80.734375 104.054688 79.511719 103.066406 79.230469 101.65625 C 71.90625 62.960938 77.070312 36.347656 93.769531 26.707031 C 105.835938 19.726562 122.746094 22.40625 142.660156 34.441406 C 161.398438 45.773438 182.085938 64.863281 202.515625 89.640625 C 203.550781 90.886719 203.363281 92.746094 202.117188 93.78125 C 200.875 94.8125 199.019531 94.625 197.984375 93.378906 C 177.953125 69.117188 157.78125 50.476562 139.605469 39.496094 C 121.640625 28.636719 106.800781 25.980469 96.703125 31.808594 C 89.65625 35.875 85.054688 43.941406 83.011719 55.765625 C 80.96875 67.707031 81.625 82.777344 85.007812 100.574219 C 85.3125 102.171875 84.257812 103.699219 82.660156 104.007812 C 82.472656 104.054688 82.308594 104.054688 82.121094 104.054688 Z M 82.121094 104.054688 " fill-opacity="1" fill-rule="nonzero"/><g clip-path="url(#b0dc05f893)"><path fill="#41e0d5" d="M 108.75 355.648438 C 103.183594 355.648438 98.160156 354.378906 93.769531 351.839844 C 84.820312 346.667969 79.160156 336.960938 77 322.972656 C 74.980469 309.972656 76.015625 293.492188 80.054688 274.023438 C 80.382812 272.425781 81.933594 271.414062 83.527344 271.746094 C 85.125 272.074219 86.136719 273.625 85.808594 275.222656 C 78.011719 312.792969 81.886719 338.183594 96.703125 346.761719 C 103.300781 350.570312 111.894531 350.78125 122.230469 347.351562 C 132.679688 343.894531 144.398438 336.914062 157.101562 326.640625 C 161.515625 323.066406 166.023438 319.09375 170.558594 314.789062 C 171.730469 313.683594 173.585938 313.730469 174.714844 314.90625 C 175.816406 316.082031 175.769531 317.941406 174.597656 319.070312 C 169.96875 323.464844 165.320312 327.554688 160.789062 331.222656 C 147.542969 341.96875 135.191406 349.277344 124.0625 352.945312 C 118.589844 354.730469 113.46875 355.648438 108.75 355.648438 Z M 108.75 355.648438 " fill-opacity="1" fill-rule="nonzero"/></g><path fill="#41e0d5" d="M 282.289062 143.550781 C 281.984375 143.550781 281.65625 143.5 281.351562 143.382812 C 279.824219 142.867188 279 141.199219 279.519531 139.644531 C 288.699219 112.585938 293.421875 88.183594 293.160156 69.070312 C 292.996094 55.859375 290.273438 38.699219 278.34375 31.785156 C 263.386719 23.132812 238.09375 33.289062 208.953125 59.621094 C 207.753906 60.703125 205.898438 60.609375 204.796875 59.410156 C 203.714844 58.210938 203.808594 56.351562 205.007812 55.25 C 220.058594 41.660156 234.148438 32.1875 246.921875 27.085938 C 260.683594 21.605469 272.238281 21.464844 281.28125 26.683594 C 287.125 30.070312 291.636719 35.59375 294.617188 43.070312 C 297.414062 50.050781 298.890625 58.773438 299.03125 68.976562 C 299.289062 88.773438 294.476562 113.855469 285.082031 141.527344 C 284.636719 142.773438 283.511719 143.550781 282.289062 143.550781 Z M 282.289062 143.550781 " fill-opacity="1" fill-rule="nonzero"/><path fill="#41e0d5" d="M 83.765625 122.132812 C 77.257812 122.132812 71.976562 116.84375 71.976562 110.332031 C 71.976562 103.816406 77.257812 98.527344 83.765625 98.527344 C 90.269531 98.527344 95.550781 103.816406 95.550781 110.332031 C 95.550781 116.84375 90.246094 122.132812 83.765625 122.132812 Z M 83.765625 104.382812 C 80.5 104.382812 77.847656 107.039062 77.847656 110.308594 C 77.847656 113.574219 80.5 116.230469 83.765625 116.230469 C 87.027344 116.230469 89.679688 113.574219 89.679688 110.308594 C 89.679688 107.039062 87.027344 104.382812 83.765625 104.382812 Z M 83.765625 104.382812 " fill-opacity="1" fill-rule="nonzero"/><path fill="#41e0d5" d="M 291.023438 278.914062 C 284.519531 278.914062 279.238281 273.625 279.238281 267.113281 C 279.238281 260.601562 284.519531 255.3125 291.023438 255.3125 C 297.53125 255.3125 302.8125 260.601562 302.8125 267.113281 C 302.8125 273.625 297.53125 278.914062 291.023438 278.914062 Z M 291.023438 261.164062 C 287.761719 261.164062 285.105469 263.820312 285.105469 267.089844 C 285.105469 270.359375 287.761719 273.015625 291.023438 273.015625 C 294.289062 273.015625 296.941406 270.359375 296.941406 267.089844 C 296.941406 263.820312 294.3125 261.164062 291.023438 261.164062 Z M 291.023438 261.164062 " fill-opacity="1" fill-rule="nonzero"/><path fill="#41e0d5" d="M 199.558594 327.601562 C 193.054688 327.601562 187.769531 322.3125 187.769531 315.800781 C 187.769531 309.289062 193.054688 304 199.558594 304 C 206.0625 304 211.347656 309.289062 211.347656 315.800781 C 211.347656 322.3125 206.0625 327.601562 199.558594 327.601562 Z M 199.558594 309.875 C 196.292969 309.875 193.640625 312.535156 193.640625 315.800781 C 193.640625 319.070312 196.292969 321.726562 199.558594 321.726562 C 202.824219 321.726562 205.476562 319.070312 205.476562 315.800781 C 205.476562 312.535156 202.824219 309.875 199.558594 309.875 Z M 199.558594 309.875 " fill-opacity="1" fill-rule="nonzero"/><path fill="#41e0d5" d="M 84.398438 276.753906 C 79.65625 276.753906 75.804688 272.898438 75.804688 268.148438 C 75.804688 263.398438 79.65625 259.542969 84.398438 259.542969 C 89.140625 259.542969 92.992188 263.398438 92.992188 268.148438 C 92.992188 272.898438 89.140625 276.753906 84.398438 276.753906 Z M 84.398438 265.445312 C 82.894531 265.445312 81.675781 266.667969 81.675781 268.171875 C 81.675781 269.675781 82.894531 270.898438 84.398438 270.898438 C 85.902344 270.898438 87.121094 269.675781 87.121094 268.171875 C 87.121094 266.667969 85.902344 265.445312 84.398438 265.445312 Z M 84.398438 265.445312 " fill-opacity="1" fill-rule="nonzero"/><path fill="#41e0d5" d="M 216.019531 263.09375 C 211.277344 263.09375 207.425781 259.238281 207.425781 254.488281 C 207.425781 249.738281 211.277344 245.882812 216.019531 245.882812 C 220.761719 245.882812 224.613281 249.738281 224.613281 254.488281 C 224.613281 259.238281 220.761719 263.09375 216.019531 263.09375 Z M 216.019531 251.785156 C 214.515625 251.785156 213.296875 253.007812 213.296875 254.511719 C 213.296875 256.015625 214.515625 257.238281 216.019531 257.238281 C 217.523438 257.238281 218.742188 256.015625 218.742188 254.511719 C 218.742188 253.007812 217.523438 251.785156 216.019531 251.785156 Z M 216.019531 251.785156 " fill-opacity="1" fill-rule="nonzero"/><path fill="#41e0d5" d="M 304.035156 145.523438 C 299.289062 145.523438 295.441406 141.667969 295.441406 136.917969 C 295.441406 132.171875 299.289062 128.316406 304.035156 128.316406 C 308.777344 128.316406 312.628906 132.171875 312.628906 136.917969 C 312.628906 141.667969 308.753906 145.523438 304.035156 145.523438 Z M 304.035156 134.191406 C 302.53125 134.191406 301.308594 135.414062 301.308594 136.917969 C 301.308594 138.425781 302.53125 139.644531 304.035156 139.644531 C 305.539062 139.644531 306.757812 138.425781 306.757812 136.917969 C 306.757812 135.414062 305.515625 134.191406 304.035156 134.191406 Z M 304.035156 134.191406 " fill-opacity="1" fill-rule="nonzero"/><path fill="#41e0d5" d="M 202.824219 69.871094 C 198.078125 69.871094 194.226562 66.015625 194.226562 61.265625 C 194.226562 56.519531 198.078125 52.664062 202.824219 52.664062 C 207.566406 52.664062 211.417969 56.519531 211.417969 61.265625 C 211.417969 66.015625 207.566406 69.871094 202.824219 69.871094 Z M 202.824219 58.5625 C 201.320312 58.5625 200.097656 59.785156 200.097656 61.289062 C 200.097656 62.792969 201.320312 64.015625 202.824219 64.015625 C 204.324219 64.015625 205.546875 62.792969 205.546875 61.289062 C 205.546875 59.785156 204.324219 58.5625 202.824219 58.5625 Z M 202.824219 58.5625 " fill-opacity="1" fill-rule="nonzero"/></svg>